<svg version="1.1" id="Layer_1" xmlns="http://www.w3.org/2000/svg" xmlns:xlink="http://www.w3.org/1999/xlink" x="0px" y="0px"
	 width="100%" viewBox="0 0 180 180" enable-background="new 0 0 180 180" xml:space="preserve">
<path fill="#F2F7FC" opacity="1.000000" stroke="none" 
	d="
M116.000000,1.000000 
	C137.636719,1.000000 159.273453,1.000000 180.955078,1.000000 
	C180.955078,60.887112 180.955078,120.774269 180.955078,181.000000 
	C157.313507,181.000000 133.625412,181.000000 109.468658,180.571716 
	C109.560356,175.838684 108.256760,173.441513 103.325874,173.878418 
	C102.019218,173.994217 99.366875,172.602875 99.397202,172.009003 
	C99.696411,166.150223 96.646851,163.399521 91.738754,160.712830 
	C86.578369,157.888046 80.576584,157.263611 75.787979,160.534454 
	C73.673019,161.979065 70.736183,162.773605 68.163322,162.795639 
	C66.511841,162.809814 64.843681,160.876892 63.182999,159.816757 
	C64.691132,158.563965 66.294769,156.142166 67.691238,156.256271 
	C74.551178,156.816681 78.869194,153.223724 82.705322,147.889587 
	C84.420769,148.869125 85.876656,150.068802 87.542038,150.564224 
	C89.978775,151.289047 93.417023,151.603088 92.594872,147.781967 
	C91.541000,142.883865 94.273453,143.394440 96.445236,143.227737 
	C98.027679,145.076843 99.088966,146.646912 100.520569,147.725372 
	C100.825180,147.954834 103.250542,146.491226 103.357513,145.639236 
	C103.621880,143.533569 103.847015,140.708755 102.697594,139.343414 
	C101.578400,138.013977 98.717995,137.661743 96.647392,137.723877 
	C92.370186,137.852219 88.116760,138.837677 83.841049,138.938034 
	C75.067009,139.143982 75.005188,138.940277 75.428734,129.912872 
	C77.904778,129.877762 79.952202,129.943893 82.087975,130.389984 
	C87.730774,133.498489 92.953438,133.236771 95.903046,129.991150 
	C95.776428,129.906555 95.891190,129.624451 96.147003,129.800171 
	C96.944618,130.260208 97.486435,130.544540 98.248642,131.090118 
	C102.102310,134.089554 105.735580,136.827728 109.459694,139.596161 
	C109.550545,139.626404 109.732635,139.567093 110.014633,139.774261 
	C112.223564,140.718231 114.150505,141.455032 116.038330,142.094208 
	C115.999207,141.996567 116.135536,142.170807 116.135536,142.170807 
	C116.135536,142.170807 115.988335,142.090622 115.938812,141.657623 
	C116.771492,134.703293 116.753761,127.658485 125.218529,125.631683 
	C125.692039,125.518303 125.976143,124.613884 126.559471,124.018944 
	C127.028587,123.760452 127.130013,123.499733 127.382652,122.926682 
	C130.063492,114.023994 129.690094,105.441696 127.025742,96.950867 
	C127.007942,96.985252 127.084595,96.974243 127.051788,96.725647 
	C126.985405,96.313286 126.951820,96.149521 127.116684,95.932259 
	C127.583794,95.758263 127.757744,95.556221 127.894600,94.919769 
	C128.307983,93.686996 128.663742,92.807083 129.312408,92.047134 
	C130.872681,93.643433 132.140060,95.119781 133.524002,96.731918 
	C133.764755,95.834526 134.022110,94.875214 134.284042,93.898819 
	C136.961884,95.055489 139.344940,96.084839 141.925018,97.399315 
	C144.415573,98.777222 146.709152,99.869995 149.181976,101.127502 
	C149.361252,101.292236 149.837051,101.395630 150.066742,101.643860 
	C152.231491,102.825386 154.122330,103.868347 156.110519,104.669884 
	C160.683838,106.513618 162.706711,105.090012 163.029541,99.538506 
	C163.072021,87.725105 163.020615,76.372124 163.062286,64.574402 
	C163.151077,61.969379 163.775284,59.521854 162.957855,57.733173 
	C162.207092,56.090424 159.264725,53.744892 158.387054,54.141479 
	C152.745407,56.690727 147.406113,59.909065 141.632477,62.808517 
	C140.160187,63.356216 139.022903,64.003036 137.462708,64.682175 
	C136.273056,65.028847 135.506348,65.343208 134.587524,65.601532 
	C134.435410,65.545502 134.121292,65.625786 134.076447,65.432205 
	C134.031616,65.238625 133.697769,65.023048 133.768661,64.588226 
	C133.297791,60.696392 132.756012,57.239376 132.172897,53.844849 
	C132.131546,53.907330 132.264435,53.838078 132.211670,53.550304 
	C131.743179,52.908775 131.327454,52.555019 130.931229,52.144043 
	C130.950714,52.086815 130.830627,52.072735 130.819305,51.777111 
	C130.198196,51.026016 129.588409,50.570545 128.882553,49.984520 
	C128.786469,49.853970 128.462265,49.855537 128.230865,49.560627 
	C127.027275,49.107731 126.055084,48.949745 125.075623,48.838306 
	C125.068352,48.884853 125.159599,48.861355 125.034180,48.533955 
	C123.602486,47.882889 122.296204,47.559219 120.556793,47.171509 
	C118.083435,47.150967 116.043190,47.194473 113.544449,47.139027 
	C107.725716,47.107876 102.365494,47.175678 96.541870,47.180931 
	C91.051476,47.041775 86.024467,46.965172 81.071358,46.538551 
	C82.761742,44.407925 85.802322,42.567638 85.730675,40.857761 
	C85.505730,35.489742 84.655334,30.384956 90.505829,27.240564 
	C90.957581,26.997768 90.601540,25.515837 91.050774,24.952763 
	C92.189651,23.525282 93.344238,21.709778 94.903831,21.097776 
	C98.733025,19.595163 102.695557,18.868128 103.807411,13.774879 
	C104.130661,12.294108 106.593384,10.677398 108.359138,10.221087 
	C115.234032,8.444459 115.857185,7.918958 116.000000,1.000000 
z"/>
<path fill="#F6FAFD" opacity="1.000000" stroke="none" 
	d="
M75.000107,130.014130 
	C75.005188,138.940277 75.067009,139.143982 83.841049,138.938034 
	C88.116760,138.837677 92.370186,137.852219 96.647392,137.723877 
	C98.717995,137.661743 101.578400,138.013977 102.697594,139.343414 
	C103.847015,140.708755 103.621880,143.533569 103.357513,145.639236 
	C103.250542,146.491226 100.825180,147.954834 100.520569,147.725372 
	C99.088966,146.646912 98.027679,145.076843 96.445236,143.227737 
	C94.273453,143.394440 91.541000,142.883865 92.594872,147.781967 
	C93.417023,151.603088 89.978775,151.289047 87.542038,150.564224 
	C85.876656,150.068802 84.420769,148.869125 82.705322,147.889587 
	C78.869194,153.223724 74.551178,156.816681 67.691238,156.256271 
	C66.294769,156.142166 64.691132,158.563965 63.182999,159.816757 
	C64.843681,160.876892 66.511841,162.809814 68.163322,162.795639 
	C70.736183,162.773605 73.673019,161.979065 75.787979,160.534454 
	C80.576584,157.263611 86.578369,157.888046 91.738754,160.712830 
	C96.646851,163.399521 99.696411,166.150223 99.397202,172.009003 
	C99.366875,172.602875 102.019218,173.994217 103.325874,173.878418 
	C108.256760,173.441513 109.560356,175.838684 109.000000,180.571716 
	C107.611107,181.000000 106.222221,181.000000 104.415611,180.602509 
	C102.866249,178.830917 101.734604,177.456802 100.602959,176.082703 
	C99.735306,177.721802 98.867653,179.360901 98.000000,181.000000 
	C96.611107,181.000000 95.222221,181.000000 93.416672,180.556107 
	C92.265121,177.462006 91.749176,172.614258 90.760063,172.515717 
	C83.985260,171.840744 77.111237,172.161591 69.443947,172.161591 
	C71.735504,175.806931 73.367752,178.403458 75.000000,181.000000 
	C56.312439,181.000000 37.624878,181.000000 18.476618,180.609741 
	C19.026075,177.675095 19.470514,174.635162 21.170238,172.694855 
	C24.222654,169.210388 24.178446,167.138229 20.414610,164.133011 
	C17.839252,162.076721 15.761042,159.397797 12.740952,156.246277 
	C17.298794,154.016068 20.707325,152.348236 24.115858,150.680405 
	C24.434574,149.914734 24.753292,149.149048 25.072010,148.383377 
	C14.820481,148.573074 12.361073,141.356964 9.326570,134.710297 
	C12.553069,129.041260 17.381737,127.803474 23.329187,129.611694 
	C23.958057,129.802887 24.782946,130.158279 25.251932,129.918732 
	C26.824718,129.115433 28.277412,128.076996 29.776075,127.128563 
	C28.611820,125.771820 27.642992,123.554932 26.242764,123.236794 
	C23.297647,122.567650 20.112946,122.683594 17.051437,122.874962 
	C14.219269,123.051994 12.762304,121.938942 13.064540,119.245255 
	C13.519535,115.190079 11.170410,110.536659 15.536383,107.172966 
	C15.935406,106.865547 15.205089,105.092278 14.999445,103.553215 
	C14.687983,100.193031 14.344592,97.282288 14.072170,94.364914 
	C13.687536,90.245850 13.355387,86.121872 13.375343,81.994171 
	C15.119809,80.860497 16.489733,79.732666 17.859657,78.604828 
	C16.573267,77.736549 15.286876,76.868279 14.072803,75.633186 
	C17.977129,73.064911 16.904650,69.352669 17.339394,65.822174 
	C21.365940,64.777641 25.052637,63.910950 29.573452,62.848171 
	C27.515457,60.683544 25.842249,58.923645 24.294361,57.295555 
	C25.692789,55.686577 27.836735,54.331211 27.772638,53.089855 
	C27.561487,49.000534 29.915586,48.143436 33.059517,47.374313 
	C35.836666,46.694923 38.567818,44.616516 41.191692,44.817924 
	C44.735092,45.089920 46.924141,44.409996 48.404343,41.231319 
	C49.402134,39.088604 50.834274,38.039257 53.000000,40.374962 
	C53.000000,41.499847 53.000000,42.249771 52.704769,43.040531 
	C52.094990,43.486267 51.780441,43.891163 51.465897,44.296062 
	C51.977215,44.530758 52.488529,44.765457 53.007690,45.279976 
	C53.022572,45.746288 53.029617,45.932777 52.812477,46.473297 
	C50.786270,46.886990 48.935368,46.713341 47.197163,47.077538 
	C45.712425,47.388618 44.357067,48.317211 42.631454,48.953259 
	C37.290382,48.628380 35.337292,51.955837 33.799240,56.355888 
	C33.466125,59.958939 33.315933,63.195850 33.135738,67.079414 
	C41.848301,67.079414 49.924175,67.079414 58.000023,67.441391 
	C57.999065,68.768570 57.998135,69.733780 57.573814,70.790939 
	C55.423397,70.961548 53.696373,71.040207 51.509808,71.033783 
	C45.239342,70.937843 39.378826,70.468925 33.636353,71.090515 
	C30.271103,71.454773 27.093946,73.556725 23.880331,74.908150 
	C23.928482,74.939285 23.888708,74.831718 23.543850,74.945366 
	C22.596054,75.143944 21.993114,75.228874 21.271519,75.007919 
	C20.703686,74.321060 20.254511,73.940086 19.805336,73.559113 
	C19.642756,73.793549 19.480177,74.027977 19.317596,74.262413 
	C19.967087,74.650414 20.616577,75.038406 21.574127,75.675308 
	C21.327969,77.282394 20.773748,78.640587 20.007900,80.362656 
	C19.626551,88.012131 19.084560,95.319443 19.507195,102.570526 
	C19.639097,104.833565 22.376694,106.944725 23.942589,109.080994 
	C23.963692,109.036583 23.874592,109.078209 23.959713,109.413200 
	C25.356359,110.547462 26.667887,111.346725 28.151415,112.331093 
	C28.490747,112.535599 28.658079,112.555008 28.985388,112.726822 
	C29.145367,112.879227 29.574980,112.983009 29.574980,112.983009 
	C29.574980,112.983009 30.003996,112.876770 30.307487,112.989258 
	C31.041288,113.080437 31.471600,113.059128 32.094959,113.419884 
	C32.551281,117.151360 32.679501,120.519287 33.135204,123.842300 
	C33.360645,125.486237 34.189445,127.047440 34.745262,128.646088 
	C36.359104,128.080338 38.087032,127.714722 39.548485,126.881645 
	C40.601830,126.281197 41.300312,125.058205 42.111275,124.093781 
	C42.065475,124.074669 42.095905,124.169144 42.357101,124.076309 
	C42.801849,123.676796 42.985397,123.370125 43.472141,122.927505 
	C47.192822,120.207123 50.610306,117.622681 54.306011,114.910339 
	C55.065727,114.409882 55.547222,114.037331 56.471565,113.721191 
	C59.295933,113.723900 61.677448,113.670197 64.276360,113.711929 
	C64.493752,113.807373 64.931396,113.623138 65.389160,113.706604 
	C69.259071,113.732399 72.671219,113.674736 76.381195,113.723038 
	C77.088226,113.758842 77.497444,113.688698 78.262741,113.701843 
	C79.100128,113.730423 79.581429,113.675705 80.282570,113.714203 
	C80.502403,113.807419 80.943169,113.623604 81.376381,113.708572 
	C83.862976,113.826469 85.916359,113.859413 88.098694,114.178543 
	C89.148293,115.276222 90.068939,116.087708 90.709778,117.014595 
	C89.934891,117.403053 89.439812,117.676102 88.947861,117.971130 
	C88.950989,117.993103 88.995361,117.994453 88.528290,118.034821 
	C77.706886,118.182961 67.352570,118.290718 56.775581,118.302612 
	C56.173420,118.366013 56.067360,118.633789 56.223953,119.357292 
	C58.926933,124.537308 62.532974,128.287277 67.995064,129.893967 
	C65.156006,133.394516 62.100281,134.809387 57.777275,133.580978 
	C56.430183,133.198181 54.547123,134.701538 52.369896,135.552277 
	C55.024323,137.743088 56.571011,139.095856 58.201546,140.338638 
	C59.291981,141.169739 60.501587,141.844498 61.657867,142.589218 
	C62.439796,141.315414 63.744385,140.101913 63.899632,138.755844 
	C64.273483,135.514374 65.914948,134.421432 68.963791,133.797546 
	C70.502686,133.482635 71.666504,131.334778 73.328568,129.919006 
	C74.104843,129.886246 74.552475,129.950195 75.000107,130.014130 
M51.462288,146.393723 
	C50.860928,145.719513 50.259563,145.045288 49.658211,144.371063 
	C49.266212,144.962601 48.874214,145.554138 48.482212,146.145660 
	C49.307209,146.361176 50.132202,146.576691 51.462288,146.393723 
z"/>
<path fill="#F5FAFD" opacity="1.000000" stroke="none" 
	d="
M53.000000,40.000000 
	C50.834274,38.039257 49.402134,39.088604 48.404343,41.231319 
	C46.924141,44.409996 44.735092,45.089920 41.191692,44.817924 
	C38.567818,44.616516 35.836666,46.694923 33.059517,47.374313 
	C29.915586,48.143436 27.561487,49.000534 27.772638,53.089855 
	C27.836735,54.331211 25.692789,55.686577 24.294361,57.295555 
	C25.842249,58.923645 27.515457,60.683544 29.573452,62.848171 
	C25.052637,63.910950 21.365940,64.777641 17.070915,65.579178 
	C17.117666,61.143570 16.149582,56.168568 21.416071,53.566814 
	C22.089924,53.233910 22.382408,50.887623 21.972471,49.807789 
	C19.656092,43.706097 20.922724,38.124432 25.082220,33.639133 
	C30.420954,27.882223 33.239079,21.814760 32.209106,13.725303 
	C31.787907,10.417196 32.112148,6.095305 37.342430,5.102640 
	C38.448009,4.892809 39.125347,2.426581 40.000000,1.000000 
	C55.354229,1.000000 70.708458,1.000000 86.531235,1.416926 
	C86.569275,8.996026 86.241997,9.027416 79.612778,10.180734 
	C77.663773,10.519810 74.553833,12.991432 74.626305,14.343647 
	C74.785934,17.321739 77.362495,18.523373 80.561745,17.341934 
	C81.607300,16.955824 82.848351,17.099121 84.000580,17.388199 
	C83.061073,22.926374 82.591667,28.222115 81.056808,33.188587 
	C79.301788,38.867455 74.010994,36.583366 69.924454,36.633335 
	C68.232399,35.844448 66.616203,35.422222 64.623734,34.955269 
	C60.845375,33.444962 58.326027,33.783241 56.777206,37.747856 
	C56.356052,38.825909 54.303703,39.266720 53.000000,40.000000 
z"/>
<path fill="#F9FDFE" opacity="1.000000" stroke="none" 
	d="
M39.531342,1.000000 
	C39.125347,2.426581 38.448009,4.892809 37.342430,5.102640 
	C32.112148,6.095305 31.787907,10.417196 32.209106,13.725303 
	C33.239079,21.814760 30.420954,27.882223 25.082220,33.639133 
	C20.922724,38.124432 19.656092,43.706097 21.972471,49.807789 
	C22.382408,50.887623 22.089924,53.233910 21.416071,53.566814 
	C16.149582,56.168568 17.117666,61.143570 16.731064,65.757019 
	C16.904650,69.352669 17.977129,73.064911 13.794587,75.899094 
	C13.296304,78.354546 13.148553,80.177277 13.000801,82.000000 
	C13.355387,86.121872 13.687536,90.245850 14.072170,94.364914 
	C14.344592,97.282288 14.687983,100.193031 14.547915,103.553337 
	C9.730758,103.666626 5.365379,103.333313 1.000000,103.000000 
	C1.000000,100.629440 1.000000,98.258888 1.434409,95.444168 
	C4.446913,94.654739 7.081808,94.521339 9.573381,93.853348 
	C10.488814,93.607925 11.065337,92.098381 11.796451,91.165451 
	C10.827633,90.452446 9.916658,89.245216 8.878612,89.123734 
	C6.283133,88.819969 3.629999,89.008820 1.000000,89.000000 
	C1.000000,76.312439 1.000000,63.624878 1.414066,50.468590 
	C5.376128,50.162060 8.016418,49.464367 6.476473,44.959705 
	C5.483300,42.054470 6.360835,39.565971 9.324631,39.440529 
	C10.480337,39.391613 11.838028,42.440075 12.951833,44.175217 
	C13.255579,44.648407 12.737480,45.697914 13.065743,46.097134 
	C13.932016,47.150639 15.055684,47.992496 16.076874,48.918621 
	C16.688227,47.777035 18.028286,46.442413 17.785797,45.527008 
	C16.689432,41.388157 17.715590,36.416447 13.186899,33.463039 
	C12.361480,32.924740 12.225348,31.122519 12.026916,29.863428 
	C10.747966,21.748270 18.249949,18.891581 21.772924,13.080451 
	C19.772232,8.486873 12.154153,7.632779 12.000000,1.000000 
	C21.020895,1.000000 30.041792,1.000000 39.531342,1.000000 
z"/>
<path fill="#FBFDFD" opacity="1.000000" stroke="none" 
	d="
M1.000000,103.468658 
	C5.365379,103.333313 9.730758,103.666626 14.547666,103.999817 
	C15.205089,105.092278 15.935406,106.865547 15.536383,107.172966 
	C11.170410,110.536659 13.519535,115.190079 13.064540,119.245255 
	C12.762304,121.938942 14.219269,123.051994 17.051437,122.874962 
	C20.112946,122.683594 23.297647,122.567650 26.242764,123.236794 
	C27.642992,123.554932 28.611820,125.771820 29.776075,127.128563 
	C28.277412,128.076996 26.824718,129.115433 25.251932,129.918732 
	C24.782946,130.158279 23.958057,129.802887 23.329187,129.611694 
	C17.381737,127.803474 12.553069,129.041260 9.326570,134.710297 
	C12.361073,141.356964 14.820481,148.573074 25.072010,148.383377 
	C24.753292,149.149048 24.434574,149.914734 24.115858,150.680405 
	C20.707325,152.348236 17.298794,154.016068 12.740952,156.246277 
	C15.761042,159.397797 17.839252,162.076721 20.414610,164.133011 
	C24.178446,167.138229 24.222654,169.210388 21.170238,172.694855 
	C19.470514,174.635162 19.026075,177.675095 18.007961,180.609741 
	C12.359557,181.000000 6.719114,181.000000 1.000000,181.000000 
	C1.000000,155.312485 1.000000,129.624908 1.000000,103.468658 
z"/>
<path fill="#FCFDFD" opacity="1.000000" stroke="none" 
	d="
M11.517044,1.000000 
	C12.154153,7.632779 19.772232,8.486873 21.772924,13.080451 
	C18.249949,18.891581 10.747966,21.748270 12.026916,29.863428 
	C12.225348,31.122519 12.361480,32.924740 13.186899,33.463039 
	C17.715590,36.416447 16.689432,41.388157 17.785797,45.527008 
	C18.028286,46.442413 16.688227,47.777035 16.076874,48.918621 
	C15.055684,47.992496 13.932016,47.150639 13.065743,46.097134 
	C12.737480,45.697914 13.255579,44.648407 12.951833,44.175217 
	C11.838028,42.440075 10.480337,39.391613 9.324631,39.440529 
	C6.360835,39.565971 5.483300,42.054470 6.476473,44.959705 
	C8.016418,49.464367 5.376128,50.162060 1.414066,49.999931 
	C1.000000,33.666592 1.000000,17.333185 1.000000,1.000000 
	C4.419627,1.000000 7.726858,1.000000 11.517044,1.000000 
z"/>
<path fill="#F6F8FE" opacity="1.000000" stroke="none" 
	d="
M70.000305,37.000000 
	C74.010994,36.583366 79.301788,38.867455 81.056808,33.188587 
	C82.591667,28.222115 83.061073,22.926374 84.346504,17.539778 
	C86.419952,17.328711 88.648201,18.056675 89.783348,17.248775 
	C93.331581,14.723455 96.797241,11.904890 99.640083,8.631320 
	C101.380913,6.626717 101.920792,3.579172 103.000000,1.000000 
	C107.024544,1.000000 111.049088,1.000000 115.536819,1.000000 
	C115.857185,7.918958 115.234032,8.444459 108.359138,10.221087 
	C106.593384,10.677398 104.130661,12.294108 103.807411,13.774879 
	C102.695557,18.868128 98.733025,19.595163 94.903831,21.097776 
	C93.344238,21.709778 92.189651,23.525282 91.050774,24.952763 
	C90.601540,25.515837 90.957581,26.997768 90.505829,27.240564 
	C84.655334,30.384956 85.505730,35.489742 85.730675,40.857761 
	C85.802322,42.567638 82.761742,44.407925 80.827576,46.634354 
	C80.342407,47.129524 80.174911,47.178879 79.557449,47.131577 
	C75.738876,46.970348 72.370262,46.905777 68.891541,46.464920 
	C64.752609,44.746693 60.722332,43.381927 56.648834,46.904354 
	C55.211674,46.687115 54.124172,46.403191 53.036667,46.119270 
	C53.029617,45.932777 53.022572,45.746288 53.007729,44.946571 
	C52.999950,43.888790 52.999973,43.444241 53.000000,42.999695 
	C53.000000,42.249771 53.000000,41.499847 53.000000,40.374962 
	C54.303703,39.266720 56.356052,38.825909 56.777206,37.747856 
	C58.326027,33.783241 60.845375,33.444962 64.629623,35.324398 
	C65.810165,39.576618 67.425964,40.183205 70.000305,37.000000 
z"/>
<path fill="#F2F7FC" opacity="1.000000" stroke="none" 
	d="
M102.533142,1.000000 
	C101.920792,3.579172 101.380913,6.626717 99.640083,8.631320 
	C96.797241,11.904890 93.331581,14.723455 89.783348,17.248775 
	C88.648201,18.056675 86.419952,17.328711 84.345917,17.151882 
	C82.848351,17.099121 81.607300,16.955824 80.561745,17.341934 
	C77.362495,18.523373 74.785934,17.321739 74.626305,14.343647 
	C74.553833,12.991432 77.663773,10.519810 79.612778,10.180734 
	C86.241997,9.027416 86.569275,8.996026 86.999893,1.416926 
	C92.022095,1.000000 97.044182,1.000000 102.533142,1.000000 
z"/>
<path fill="#F2F7FC" opacity="1.000000" stroke="none" 
	d="
M75.467941,181.000000 
	C73.367752,178.403458 71.735504,175.806931 69.443947,172.161591 
	C77.111237,172.161591 83.985260,171.840744 90.760063,172.515717 
	C91.749176,172.614258 92.265121,177.462006 93.000000,180.556107 
	C87.311958,181.000000 81.623917,181.000000 75.467941,181.000000 
z"/>
<path fill="#FCFDFD" opacity="1.000000" stroke="none" 
	d="
M1.000000,89.428467 
	C3.629999,89.008820 6.283133,88.819969 8.878612,89.123734 
	C9.916658,89.245216 10.827633,90.452446 11.796451,91.165451 
	C11.065337,92.098381 10.488814,93.607925 9.573381,93.853348 
	C7.081808,94.521339 4.446913,94.654739 1.434409,95.000000 
	C1.000000,93.285645 1.000000,91.571281 1.000000,89.428467 
z"/>
<path fill="#F2F7FC" opacity="1.000000" stroke="none" 
	d="
M98.428467,181.000000 
	C98.867653,179.360901 99.735306,177.721802 100.602959,176.082703 
	C101.734604,177.456802 102.866249,178.830917 103.998947,180.602509 
	C102.285645,181.000000 100.571281,181.000000 98.428467,181.000000 
z"/>
<path fill="#19456E" opacity="1.000000" stroke="none" 
	d="
M134.739639,65.657562 
	C135.506348,65.343208 136.273056,65.028847 137.461807,65.091011 
	C137.489700,69.136780 136.786194,72.813812 136.878220,76.470825 
	C136.908249,77.664230 138.926071,79.702713 140.180069,79.821526 
	C147.096832,80.476906 154.058533,80.657890 161.145782,81.334251 
	C161.184647,84.443253 161.082581,87.219543 160.597748,90.004501 
	C157.506500,90.623375 154.713455,91.826515 153.146896,88.029709 
	C151.464325,83.951729 148.828491,81.505959 143.919724,82.919785 
	C141.726166,83.551559 139.376495,83.663109 137.089508,83.944359 
	C131.321365,84.653709 127.691162,81.893204 127.003860,76.319817 
	C126.163071,69.501656 125.639008,69.166428 118.407310,71.552917 
	C118.407310,69.296303 118.386169,67.277733 118.414963,65.259880 
	C118.433266,63.977570 119.102203,62.098774 118.492424,61.510517 
	C114.186676,57.356739 117.290413,53.747231 119.297455,49.976364 
	C120.062805,49.633743 120.531319,49.314148 121.247849,48.984356 
	C121.495872,48.974159 121.992287,48.968670 122.388794,48.974888 
	C123.576736,48.941189 124.368172,48.901272 125.159599,48.861351 
	C125.159599,48.861355 125.068352,48.884853 125.282578,49.158676 
	C126.485283,49.573513 127.473778,49.714523 128.462265,49.855537 
	C128.462265,49.855537 128.786469,49.853970 128.926819,50.282791 
	C129.654984,51.165321 130.242813,51.619030 130.830627,52.072739 
	C130.830627,52.072735 130.950714,52.086815 130.987091,52.430519 
	C131.437134,53.128841 131.850784,53.483459 132.264435,53.838078 
	C132.264435,53.838078 132.131546,53.907330 132.108185,54.311722 
	C132.622467,58.151760 133.160110,61.587406 133.697769,65.023048 
	C133.697769,65.023048 134.031616,65.238625 134.147400,65.478760 
	C134.263199,65.718887 134.512299,65.767433 134.512299,65.767433 
	C134.512299,65.767433 134.739639,65.657570 134.739639,65.657562 
z"/>
<path fill="#DFEBEF" opacity="1.000000" stroke="none" 
	d="
M90.989594,116.899185 
	C90.068939,116.087708 89.148293,115.276222 88.236343,113.857872 
	C89.693871,112.539780 91.142700,111.828560 92.905701,111.054832 
	C97.190063,108.397842 99.273285,104.783066 99.282387,99.659500 
	C99.310921,98.885010 99.227829,98.437477 99.267090,97.540253 
	C99.309502,93.056168 99.229576,89.021751 99.202568,84.682037 
	C98.857254,83.914764 98.459015,83.452789 98.097748,82.592743 
	C97.024399,80.002495 95.914085,77.810310 94.731827,75.262833 
	C93.101250,73.895081 91.542633,72.882637 90.034821,71.524284 
	C90.411270,70.067764 90.736908,68.957146 91.435242,67.896103 
	C100.495705,70.590302 103.739326,77.281578 104.599792,85.899612 
	C113.381523,85.952019 122.193184,85.191353 129.019501,91.927170 
	C128.663742,92.807083 128.307983,93.686996 127.537605,94.895462 
	C126.323296,94.816269 125.523598,94.408524 124.605011,93.675735 
	C118.862518,89.175591 112.373917,90.005211 105.587524,90.136551 
	C104.858215,91.620140 104.393570,93.109993 104.259850,94.628983 
	C103.940765,98.253838 103.777794,101.892418 103.536713,105.575668 
	C103.521652,105.625870 103.475510,105.719986 103.276291,105.951813 
	C102.427132,107.462784 101.777199,108.741913 100.937614,110.282013 
	C100.390236,111.307495 100.032509,112.071999 99.391098,112.911156 
	C98.364273,113.860321 97.621132,114.734825 96.508179,115.658348 
	C94.757278,116.173737 93.376190,116.640106 91.742523,117.060516 
	C91.323158,116.976089 91.156380,116.937637 90.989594,116.899185 
z"/>
<path fill="#1C3D65" opacity="1.000000" stroke="none" 
	d="
M129.312408,92.047134 
	C122.193184,85.191353 113.381523,85.952019 104.599792,85.899612 
	C103.739326,77.281578 100.495705,70.590302 91.298950,67.616570 
	C90.193268,67.138321 89.596573,66.989182 88.999939,66.533974 
	C88.999931,65.819191 88.999870,65.410492 89.433029,65.001373 
	C93.709900,65.686432 98.461487,63.912136 100.644005,69.214943 
	C100.882774,69.795067 102.988846,69.792473 104.213531,69.734909 
	C105.816681,69.659546 107.404610,69.260452 108.866692,69.312492 
	C109.621933,71.053001 110.217926,72.855255 111.462433,73.826683 
	C113.568947,75.470970 116.961838,76.032173 118.244904,78.047592 
	C120.830887,82.109612 123.999420,85.477814 128.110641,87.471115 
	C132.880753,89.783867 137.957321,91.410828 142.207352,94.776398 
	C142.744827,95.202011 144.093521,94.582306 145.069809,94.479424 
	C146.711548,94.306412 148.356049,94.159492 150.000061,94.388123 
	C150.331543,96.510841 150.662354,98.247025 150.736084,100.159927 
	C150.265015,100.689644 150.051041,101.042641 149.837067,101.395630 
	C149.837051,101.395630 149.361252,101.292236 149.171387,100.758759 
	C146.563690,99.188248 144.145844,98.151215 141.728012,97.114189 
	C139.344940,96.084839 136.961884,95.055489 134.284042,93.898819 
	C134.022110,94.875214 133.764755,95.834526 133.524002,96.731918 
	C132.140060,95.119781 130.872681,93.643433 129.312408,92.047134 
z"/>
<path fill="#1E345D" opacity="1.000000" stroke="none" 
	d="
M91.995110,117.106483 
	C93.376190,116.640106 94.757278,116.173737 96.564301,116.041367 
	C98.313576,117.087311 99.590889,117.913628 100.976372,118.471107 
	C101.904495,118.844551 102.986137,118.836464 103.951797,119.385223 
	C102.412003,125.173080 102.929817,126.034828 108.284195,125.948662 
	C111.193710,125.901840 114.094803,125.331062 117.301857,124.866257 
	C119.739044,124.490105 121.874077,124.244286 123.843918,124.312698 
	C122.436867,125.372490 121.254662,126.613152 119.942017,126.771324 
	C115.912560,127.256874 114.523865,129.589630 115.049423,133.197266 
	C115.673050,137.478149 113.553596,139.155731 109.732635,139.567093 
	C109.732635,139.567093 109.550545,139.626404 109.568924,139.239471 
	C109.511452,137.321350 109.435593,135.790176 109.384567,134.760162 
	C107.293297,133.823074 104.927536,133.524765 104.111046,132.241058 
	C102.325180,129.433228 100.459900,129.544846 98.028244,130.828857 
	C97.486435,130.544540 96.944618,130.260208 96.041595,129.454147 
	C93.468407,128.605576 91.256416,128.278732 89.029327,127.544846 
	C88.128960,125.709244 87.207268,124.301582 86.371841,122.844467 
	C85.854477,121.942101 85.468155,120.964607 85.396408,120.016052 
	C86.844986,119.338997 87.920174,118.666725 88.995361,117.994453 
	C88.995361,117.994453 88.950989,117.993103 89.282837,117.991531 
	C90.408165,117.695473 91.201637,117.400978 91.995110,117.106483 
z"/>
<path fill="#1D5077" opacity="1.000000" stroke="none" 
	d="
M141.967499,62.907639 
	C147.406113,59.909065 152.745407,56.690727 158.387054,54.141479 
	C159.264725,53.744892 162.207092,56.090424 162.957855,57.733173 
	C163.775284,59.521854 163.151077,61.969379 162.780716,64.840546 
	C161.939011,68.041664 161.471954,70.531898 160.801849,72.774704 
	C156.666565,74.137421 153.188828,71.652046 149.596970,71.396049 
	C143.500076,70.961533 142.059952,67.933586 141.967499,62.907639 
z"/>
<path fill="#184872" opacity="1.000000" stroke="none" 
	d="
M141.632477,62.808521 
	C142.059952,67.933586 143.500076,70.961533 149.596970,71.396049 
	C153.188828,71.652046 156.666565,74.137421 160.806183,73.216400 
	C161.010635,76.270859 161.007736,78.636208 161.004837,81.001549 
	C154.058533,80.657890 147.096832,80.476906 140.180069,79.821526 
	C138.926071,79.702713 136.908249,77.664230 136.878220,76.470825 
	C136.786194,72.813812 137.489700,69.136780 137.884735,65.058701 
	C139.022903,64.003036 140.160187,63.356216 141.632477,62.808521 
z"/>
<path fill="#173B67" opacity="1.000000" stroke="none" 
	d="
M124.009102,123.998474 
	C121.874077,124.244286 119.739044,124.490105 117.291985,124.493149 
	C116.104141,123.744026 115.125671,122.683060 114.369492,122.823029 
	C110.080315,123.616943 106.367981,123.245422 103.999084,118.999100 
	C102.986137,118.836464 101.904495,118.844551 100.976372,118.471107 
	C99.590889,117.913628 98.313576,117.087311 96.934113,115.992348 
	C97.621132,114.734825 98.364273,113.860321 99.684143,113.025078 
	C103.629715,110.871208 106.463783,112.785713 109.599022,113.964951 
	C114.839081,115.935875 119.998596,118.936569 125.999207,117.333069 
	C126.357010,119.508141 126.715912,121.343109 127.074814,123.178085 
	C127.130013,123.499733 127.028587,123.760452 126.169617,123.993446 
	C125.048836,124.017258 124.528969,124.007866 124.009102,123.998474 
z"/>
<path fill="#0F1A3E" opacity="1.000000" stroke="none" 
	d="
M89.044434,127.951904 
	C91.256416,128.278732 93.468407,128.605576 95.785789,129.278427 
	C95.891190,129.624451 95.776428,129.906555 95.457947,129.839523 
	C90.759521,129.851669 86.379570,129.930847 81.999619,130.010025 
	C79.952202,129.943893 77.904778,129.877762 75.428734,129.912872 
	C74.552475,129.950195 74.104843,129.886246 72.937057,129.810455 
	C70.870438,129.720200 69.523987,129.641800 68.177528,129.563385 
	C62.532974,128.287277 58.926933,124.537308 56.396111,119.318237 
	C56.822670,118.835793 56.962402,118.657959 56.998249,118.398483 
	C67.352570,118.290718 77.706886,118.182961 88.528290,118.034821 
	C87.920174,118.666725 86.844986,119.338997 84.925232,120.006752 
	C76.445374,120.002235 68.810089,120.002235 60.354462,120.002235 
	C62.744976,125.755684 66.207558,127.776810 70.642044,127.934364 
	C76.768654,128.152023 82.909615,127.965393 89.044434,127.951904 
z"/>
<path fill="#16234D" opacity="1.000000" stroke="none" 
	d="
M121.992287,48.968670 
	C121.992287,48.968670 121.495872,48.974159 120.779205,48.978951 
	C109.055321,49.003395 98.048111,49.023052 86.659073,49.031403 
	C85.515045,49.031536 84.752846,49.042976 83.554993,49.039925 
	C81.085686,49.020992 79.052025,49.016552 76.682793,49.005581 
	C75.572571,48.677818 74.797913,48.356583 74.417343,48.023453 
	C76.543419,47.750443 78.275414,47.489334 80.007408,47.228226 
	C80.174911,47.178879 80.342407,47.129524 80.753693,46.984367 
	C86.024467,46.965172 91.051476,47.041775 96.872375,47.426468 
	C103.111832,47.569031 108.557388,47.403503 114.002953,47.237980 
	C116.043190,47.194473 118.083435,47.150967 120.668365,47.398399 
	C121.472809,48.115784 121.732552,48.542225 121.992287,48.968670 
z"/>
<path fill="#1E3E55" opacity="1.000000" stroke="none" 
	d="
M161.145782,81.334251 
	C161.007736,78.636208 161.010635,76.270859 161.009216,73.463821 
	C161.471954,70.531898 161.939011,68.041664 162.687637,65.285286 
	C163.020615,76.372124 163.072021,87.725105 162.707443,99.539261 
	C161.862000,100.000191 161.432526,99.999947 161.001831,99.555496 
	C160.995132,96.739891 160.989670,94.368477 160.987152,91.663559 
	C160.986923,90.885315 160.983719,90.440575 160.980530,89.995842 
	C161.082581,87.219543 161.184647,84.443253 161.145782,81.334251 
z"/>
<path fill="#24547A" opacity="1.000000" stroke="none" 
	d="
M124.723907,94.000763 
	C125.523598,94.408524 126.323296,94.816269 127.479980,95.248322 
	C127.757744,95.556221 127.583794,95.758263 126.969391,96.047852 
	C126.777306,96.469368 126.930946,96.721809 127.084595,96.974243 
	C127.084595,96.974243 127.007942,96.985252 127.012848,97.400078 
	C127.005730,100.202774 126.993706,102.590652 126.584213,104.985641 
	C125.124901,104.993874 124.063057,104.994995 122.993530,104.603508 
	C122.325188,100.805916 121.664536,97.400932 121.375908,93.998978 
	C122.739922,94.001587 123.731918,94.001175 124.723907,94.000763 
z"/>
<path fill="#254660" opacity="1.000000" stroke="none" 
	d="
M126.981674,104.978523 
	C126.993706,102.590652 127.005730,100.202774 127.030655,97.365692 
	C129.690094,105.441696 130.063492,114.023994 127.382652,122.926682 
	C126.715912,121.343109 126.357010,119.508141 126.001198,116.934708 
	C126.333427,114.127533 126.662567,112.058830 126.995010,109.573311 
	C126.992760,107.763840 126.987221,106.371185 126.981674,104.978523 
z"/>
<path fill="#1B2B47" opacity="1.000000" stroke="none" 
	d="
M123.843918,124.312698 
	C124.528969,124.007866 125.048836,124.017258 125.958557,124.052155 
	C125.976143,124.613884 125.692039,125.518303 125.218529,125.631683 
	C116.753761,127.658485 116.771492,134.703293 115.962509,141.681671 
	C116.035744,142.138718 116.077446,142.191849 116.077446,142.191849 
	C114.150505,141.455032 112.223564,140.718231 110.014633,139.774261 
	C113.553596,139.155731 115.673050,137.478149 115.049423,133.197266 
	C114.523865,129.589630 115.912560,127.256874 119.942017,126.771324 
	C121.254662,126.613152 122.436867,125.372490 123.843918,124.312698 
z"/>
<path fill="#223D5B" opacity="1.000000" stroke="none" 
	d="
M161.003052,99.999702 
	C161.432526,99.999947 161.862000,100.000191 162.613571,99.999680 
	C162.706711,105.090012 160.683838,106.513618 156.110519,104.669884 
	C154.122330,103.868347 152.231491,102.825386 150.066742,101.643860 
	C150.051041,101.042641 150.265015,100.689644 151.144043,100.175568 
	C154.873749,100.009560 157.938400,100.004631 161.003052,99.999702 
z"/>
<path fill="#1B2B47" opacity="1.000000" stroke="none" 
	d="
M98.248642,131.090118 
	C100.459900,129.544846 102.325180,129.433228 104.111046,132.241058 
	C104.927536,133.524765 107.293297,133.823074 109.384567,134.760162 
	C109.435593,135.790176 109.511452,137.321350 109.478073,139.209229 
	C105.735580,136.827728 102.102310,134.089554 98.248642,131.090118 
z"/>
<path fill="#F6FAFD" opacity="1.000000" stroke="none" 
	d="
M82.087975,130.389984 
	C86.379570,129.930847 90.759521,129.851669 95.584564,129.924118 
	C92.953438,133.236771 87.730774,133.498489 82.087975,130.389984 
z"/>
<path fill="#37445F" opacity="1.000000" stroke="none" 
	d="
M133.768661,64.588226 
	C133.160110,61.587406 132.622467,58.151760 132.149536,54.249241 
	C132.756012,57.239376 133.297791,60.696392 133.768661,64.588226 
z"/>
<path fill="#37445F" opacity="1.000000" stroke="none" 
	d="
M113.544449,47.139023 
	C108.557388,47.403503 103.111832,47.569031 97.335770,47.489021 
	C102.365494,47.175678 107.725716,47.107876 113.544449,47.139023 
z"/>
<path fill="#223D5B" opacity="1.000000" stroke="none" 
	d="
M141.925018,97.399315 
	C144.145844,98.151215 146.563690,99.188248 148.992126,100.594025 
	C146.709152,99.869995 144.415573,98.777222 141.925018,97.399315 
z"/>
<path fill="#37445F" opacity="1.000000" stroke="none" 
	d="
M122.388794,48.974888 
	C121.732552,48.542225 121.472809,48.115784 121.101494,47.462448 
	C122.296204,47.559219 123.602486,47.882889 125.034180,48.533951 
	C124.368172,48.901272 123.576736,48.941189 122.388794,48.974888 
z"/>
<path fill="#37445F" opacity="1.000000" stroke="none" 
	d="
M128.230865,49.560627 
	C127.473778,49.714523 126.485283,49.573513 125.289841,49.112129 
	C126.055084,48.949745 127.027275,49.107731 128.230865,49.560627 
z"/>
<path fill="#37445F" opacity="1.000000" stroke="none" 
	d="
M130.819305,51.777115 
	C130.242813,51.619030 129.654984,51.165321 129.022903,50.413345 
	C129.588409,50.570545 130.198196,51.026016 130.819305,51.777115 
z"/>
<path fill="#37445F" opacity="1.000000" stroke="none" 
	d="
M132.211670,53.550304 
	C131.850784,53.483459 131.437134,53.128841 130.967621,52.487747 
	C131.327454,52.555019 131.743179,52.908775 132.211670,53.550304 
z"/>
<path fill="#37445F" opacity="1.000000" stroke="none" 
	d="
M134.587524,65.601532 
	C134.739639,65.657570 134.512299,65.767433 134.512299,65.767433 
	C134.512299,65.767433 134.263199,65.718887 134.192245,65.672333 
	C134.121292,65.625786 134.435410,65.545502 134.587524,65.601532 
z"/>
<path fill="#254660" opacity="1.000000" stroke="none" 
	d="
M127.051788,96.725647 
	C126.930946,96.721809 126.777306,96.469368 126.770950,96.101341 
	C126.951820,96.149521 126.985405,96.313286 127.051788,96.725647 
z"/>
<path fill="#1B2B47" opacity="1.000000" stroke="none" 
	d="
M116.012039,142.114670 
	C115.988335,142.090622 116.135536,142.170807 116.135536,142.170807 
	C116.135536,142.170807 115.999207,141.996567 116.038330,142.094208 
	C116.077446,142.191849 116.035744,142.138718 116.012039,142.114670 
z"/>
<path fill="#182354" opacity="1.000000" stroke="none" 
	d="
M54.027790,115.038246 
	C50.610306,117.622681 47.192822,120.207123 43.222137,123.032410 
	C42.477932,123.571892 42.286919,123.870514 42.095905,124.169144 
	C42.095905,124.169144 42.065475,124.074669 41.655861,124.068726 
	C36.314247,124.847328 34.154282,123.026123 34.904675,117.823738 
	C35.204357,115.746063 35.830845,112.773170 31.901909,113.037811 
	C31.471600,113.059128 31.041288,113.080437 30.275272,112.742798 
	C29.568178,112.447365 29.196795,112.510895 28.825409,112.574417 
	C28.658079,112.555008 28.490747,112.535599 28.109888,111.979294 
	C26.555769,110.654335 25.215179,109.866272 23.874592,109.078209 
	C23.874592,109.078209 23.963692,109.036583 23.963350,108.674942 
	C19.811388,99.206032 21.629957,89.473175 21.300480,79.840775 
	C22.366247,78.066742 23.127478,76.449226 23.888708,74.831718 
	C23.888708,74.831718 23.928482,74.939285 24.298685,74.944824 
	C30.111506,74.300743 35.554123,73.651131 40.998085,73.401245 
	C40.998447,74.867012 40.997471,75.933044 40.576710,76.999168 
	C37.640640,76.799454 35.124348,76.599655 33.737232,76.489517 
	C34.834644,79.964378 35.914154,83.447685 37.037758,86.916718 
	C37.748135,89.109955 38.071587,91.605972 39.357082,93.401733 
	C43.004818,98.497391 47.057743,103.302994 51.081741,108.387863 
	C50.485004,108.757568 49.245861,109.525261 47.591633,110.550125 
	C50.049019,112.263733 52.038403,113.650993 54.027790,115.038246 
z"/>
<path fill="#1A2B5A" opacity="1.000000" stroke="none" 
	d="
M54.306011,114.910339 
	C52.038403,113.650993 50.049019,112.263733 47.591633,110.550125 
	C49.245861,109.525261 50.485004,108.757568 51.081741,108.387863 
	C47.057743,103.302994 43.004818,98.497391 39.357082,93.401733 
	C38.071587,91.605972 37.748135,89.109955 37.037758,86.916718 
	C35.914154,83.447685 34.834644,79.964378 33.737232,76.489517 
	C35.124348,76.599655 37.640640,76.799454 40.578865,77.405479 
	C44.426609,89.160225 48.853878,99.911415 58.342144,107.778954 
	C59.197121,108.487877 59.462158,109.908264 59.789684,111.104111 
	C59.312237,111.398407 59.125168,111.646370 58.686092,111.965912 
	C57.579700,112.540237 56.804207,113.102509 56.028713,113.664780 
	C55.547222,114.037331 55.065727,114.409882 54.306011,114.910339 
M54.580559,111.515457 
	C54.580559,111.515457 54.476994,111.575409 54.580559,111.515457 
z"/>
<path fill="#16315E" opacity="1.000000" stroke="none" 
	d="
M51.969345,71.118866 
	C53.696373,71.040207 55.423397,70.961548 57.943138,70.881821 
	C59.489433,70.958076 60.243023,71.035400 60.912628,71.470322 
	C59.220478,72.220245 57.612305,72.612572 55.684494,73.165298 
	C52.910027,74.770485 51.104881,76.684570 52.165333,79.727608 
	C53.348091,83.121605 54.877449,86.394402 56.243248,89.725166 
	C57.195255,92.046806 57.904156,96.251175 59.102798,96.392990 
	C65.790863,97.184265 67.659386,106.107735 75.011459,105.386597 
	C75.583626,105.330467 76.333389,107.085022 76.575348,107.998642 
	C72.703751,108.324837 69.687469,107.786972 67.206375,104.909065 
	C65.847008,103.332275 63.933907,101.887894 61.984406,101.224403 
	C53.426754,98.311852 51.116562,89.884987 46.185658,83.790451 
	C45.843025,83.366966 45.955898,82.487923 46.020462,81.836952 
	C46.313004,78.887405 46.664288,75.943680 47.309555,72.858109 
	C49.072906,72.185196 50.521126,71.652031 51.969345,71.118866 
z"/>
<path fill="#1B234E" opacity="1.000000" stroke="none" 
	d="
M33.982159,55.989754 
	C35.337292,51.955837 37.290382,48.628380 43.034164,48.990070 
	C44.827934,49.047626 45.905964,49.048969 46.758770,49.304672 
	C44.957878,51.075352 43.478355,52.710514 41.784546,54.080795 
	C39.082371,56.266842 40.337708,58.959156 42.246243,59.578392 
	C45.548542,60.649845 44.897518,62.786396 44.550331,64.976471 
	C41.180901,64.985947 38.269207,64.985947 35.780792,64.985947 
	C35.056667,61.364105 34.519413,58.676929 33.982159,55.989754 
z"/>
<path fill="#F5FAFD" opacity="1.000000" stroke="none" 
	d="
M60.996609,71.112732 
	C60.243023,71.035400 59.489433,70.958076 58.366524,70.789871 
	C57.998135,69.733780 57.999065,68.768570 58.430618,67.344345 
	C60.916641,66.823486 62.972050,66.761642 65.386246,66.810074 
	C66.484650,66.846169 67.224251,66.771996 68.429871,66.765457 
	C74.913467,66.790131 80.931038,66.747169 87.279305,66.823364 
	C88.073288,66.908363 88.536583,66.874207 88.999878,66.840050 
	C89.596573,66.989182 90.193268,67.138321 90.926254,67.566994 
	C90.736908,68.957146 90.411270,70.067764 89.691269,71.510788 
	C88.217979,71.625191 87.139046,71.407181 85.637787,71.083710 
	C83.478706,70.915131 81.741966,70.852013 79.718468,70.556000 
	C77.285950,70.476448 75.140175,70.629807 72.560333,70.838943 
	C70.089355,70.967400 68.052460,71.040062 65.602661,71.027374 
	C63.792046,70.998917 62.394329,71.055824 60.996609,71.112732 
z"/>
<path fill="#0D1735" opacity="1.000000" stroke="none" 
	d="
M86.948616,66.704208 
	C80.931038,66.747169 74.913467,66.790131 68.241837,66.551453 
	C66.734344,66.413147 65.880898,66.556473 65.027458,66.699799 
	C62.972050,66.761642 60.916641,66.823486 58.430641,66.982376 
	C49.924175,67.079414 41.848301,67.079414 33.135738,67.079414 
	C33.315933,63.195850 33.466125,59.958939 33.799240,56.355888 
	C34.519413,58.676929 35.056667,61.364105 35.780792,64.985947 
	C38.269207,64.985947 41.180901,64.985947 45.016235,64.985558 
	C50.961113,64.988342 55.982353,64.991508 61.471291,65.000549 
	C67.628395,64.998489 73.317795,64.990547 79.450294,64.990738 
	C82.258224,65.003670 84.623070,65.008476 86.992798,65.009003 
	C86.997681,65.004730 86.995308,65.004181 86.993591,65.287849 
	C86.977455,65.949081 86.963036,66.326645 86.948616,66.704208 
z"/>
<path fill="#F2F7FC" opacity="1.000000" stroke="none" 
	d="
M67.995064,129.893967 
	C69.523987,129.641800 70.870438,129.720200 72.608406,129.907166 
	C71.666504,131.334778 70.502686,133.482635 68.963791,133.797546 
	C65.914948,134.421432 64.273483,135.514374 63.899632,138.755844 
	C63.744385,140.101913 62.439796,141.315414 61.657867,142.589218 
	C60.501587,141.844498 59.291981,141.169739 58.201546,140.338638 
	C56.571011,139.095856 55.024323,137.743088 52.369896,135.552277 
	C54.547123,134.701538 56.430183,133.198181 57.777275,133.580978 
	C62.100281,134.809387 65.156006,133.394516 67.995064,129.893967 
z"/>
<path fill="#262D45" opacity="1.000000" stroke="none" 
	d="
M20.995945,79.997307 
	C21.629957,89.473175 19.811388,99.206032 23.942249,108.719360 
	C22.376694,106.944725 19.639097,104.833565 19.507195,102.570526 
	C19.084560,95.319443 19.626551,88.012131 20.202003,80.359749 
	C20.607737,79.992973 20.995945,79.997307 20.995945,79.997307 
z"/>
<path fill="#0F1A3A" opacity="1.000000" stroke="none" 
	d="
M56.471565,113.721191 
	C56.804207,113.102509 57.579700,112.540237 59.099327,111.979446 
	C61.222542,111.972282 62.601616,111.963631 64.359581,111.964172 
	C65.496407,111.970695 66.254349,111.968025 67.454849,111.977333 
	C70.263863,111.984756 72.630310,111.980202 75.398056,111.982635 
	C76.869667,111.986885 77.939957,111.984154 79.438705,111.989029 
	C82.256760,111.668991 84.646355,111.341339 87.276497,111.014816 
	C87.517036,111.015938 87.997940,111.002876 88.456970,111.008461 
	C90.141174,111.048477 91.366356,111.082909 92.591530,111.117340 
	C91.142700,111.828560 89.693871,112.539780 88.107391,113.571671 
	C85.916359,113.859413 83.862976,113.826469 81.301888,113.571335 
	C80.458191,113.181007 80.214378,113.271622 80.062737,113.620979 
	C79.581429,113.675705 79.100128,113.730423 78.125664,113.523651 
	C77.116127,113.380455 76.599747,113.498764 76.083366,113.617081 
	C72.671219,113.674736 69.259071,113.732399 65.317307,113.569733 
	C64.455124,113.182846 64.212219,113.271881 64.058968,113.616493 
	C61.677448,113.670197 59.295933,113.723900 56.471565,113.721191 
z"/>
<path fill="#37445F" opacity="1.000000" stroke="none" 
	d="
M46.983994,49.050308 
	C45.905964,49.048969 44.827934,49.047626 43.347191,49.009472 
	C44.357067,48.317211 45.712425,47.388618 47.197163,47.077538 
	C48.935368,46.713341 50.786270,46.886990 52.812477,46.473297 
	C54.124172,46.403191 55.211674,46.687115 57.104568,46.978279 
	C61.607189,46.937412 65.304413,46.889309 69.001640,46.841206 
	C72.370262,46.905777 75.738876,46.970348 79.557449,47.131577 
	C78.275414,47.489334 76.543419,47.750443 74.002312,48.064293 
	C69.127914,48.430187 65.062630,48.743340 60.562881,49.040276 
	C55.746941,49.032810 51.365467,49.041561 46.983994,49.050308 
z"/>
<path fill="#2A314C" opacity="1.000000" stroke="none" 
	d="
M32.094959,113.419884 
	C35.830845,112.773170 35.204357,115.746063 34.904675,117.823738 
	C34.154282,123.026123 36.314247,124.847328 41.701660,124.087845 
	C41.300312,125.058205 40.601830,126.281197 39.548485,126.881645 
	C38.087032,127.714722 36.359104,128.080338 34.745262,128.646088 
	C34.189445,127.047440 33.360645,125.486237 33.135204,123.842300 
	C32.679501,120.519287 32.551281,117.151360 32.094959,113.419884 
z"/>
<path fill="#1F2A44" opacity="1.000000" stroke="none" 
	d="
M51.509808,71.033783 
	C50.521126,71.652031 49.072906,72.185196 46.881599,72.855972 
	C44.424587,72.996246 42.710663,72.998886 40.996742,73.001526 
	C35.554123,73.651131 30.111506,74.300743 24.250534,74.913681 
	C27.093946,73.556725 30.271103,71.454773 33.636353,71.090515 
	C39.378826,70.468925 45.239342,70.937843 51.509808,71.033783 
z"/>
<path fill="#F5FAFD" opacity="1.000000" stroke="none" 
	d="
M13.375343,81.994171 
	C13.148553,80.177277 13.296304,78.354546 13.722270,76.265915 
	C15.286876,76.868279 16.573267,77.736549 17.859657,78.604828 
	C16.489733,79.732666 15.119809,80.860497 13.375343,81.994171 
z"/>
<path fill="#1F2A44" opacity="1.000000" stroke="none" 
	d="
M21.300480,79.840775 
	C20.995945,79.997307 20.607737,79.992973 20.413633,79.995880 
	C20.773748,78.640587 21.327969,77.282394 21.582691,75.622391 
	C21.283194,75.320580 21.390177,75.313805 21.390177,75.313805 
	C21.993114,75.228874 22.596054,75.143944 23.543850,74.945366 
	C23.127478,76.449226 22.366247,78.066742 21.300480,79.840775 
z"/>
<path fill="#F2F7FC" opacity="1.000000" stroke="none" 
	d="
M51.209743,146.592957 
	C50.132202,146.576691 49.307209,146.361176 48.482216,146.145660 
	C48.874214,145.554138 49.266212,144.962601 49.658207,144.371063 
	C50.259563,145.045288 50.860928,145.719513 51.209743,146.592957 
z"/>
<path fill="#262D45" opacity="1.000000" stroke="none" 
	d="
M23.959713,109.413200 
	C25.215179,109.866272 26.555769,110.654335 27.937885,111.794189 
	C26.667887,111.346725 25.356359,110.547462 23.959713,109.413200 
z"/>
<path fill="#F2F7FC" opacity="1.000000" stroke="none" 
	d="
M52.704769,43.040531 
	C52.999973,43.444241 52.999950,43.888790 52.999886,44.666744 
	C52.488529,44.765457 51.977215,44.530758 51.465897,44.296062 
	C51.780441,43.891163 52.094990,43.486267 52.704769,43.040531 
z"/>
<path fill="#F5FAFD" opacity="1.000000" stroke="none" 
	d="
M21.274632,75.373489 
	C20.616577,75.038406 19.967087,74.650414 19.317596,74.262413 
	C19.480177,74.027977 19.642756,73.793549 19.805336,73.559113 
	C20.254511,73.940086 20.703686,74.321060 21.271519,75.007919 
	C21.390177,75.313805 21.283194,75.320580 21.274632,75.373489 
z"/>
<path fill="#2C3D60" opacity="1.000000" stroke="none" 
	d="
M91.742523,117.060516 
	C91.201637,117.400978 90.408165,117.695473 89.279716,117.969559 
	C89.439812,117.676102 89.934891,117.403053 90.709778,117.014595 
	C91.156380,116.937637 91.323158,116.976089 91.742523,117.060516 
z"/>
<path fill="#1A2B5A" opacity="1.000000" stroke="none" 
	d="
M76.381195,113.723038 
	C76.599747,113.498764 77.116127,113.380455 77.769577,113.440346 
	C77.497444,113.688698 77.088226,113.758842 76.381195,113.723038 
z"/>
<path fill="#262D45" opacity="1.000000" stroke="none" 
	d="
M28.985388,112.726822 
	C29.196795,112.510895 29.568178,112.447365 29.971779,112.630310 
	C30.003996,112.876770 29.574980,112.983009 29.574980,112.983009 
	C29.574980,112.983009 29.145367,112.879227 28.985388,112.726822 
z"/>
<path fill="#2A314C" opacity="1.000000" stroke="none" 
	d="
M42.357101,124.076309 
	C42.286919,123.870514 42.477932,123.571892 42.918945,123.168350 
	C42.985397,123.370125 42.801849,123.676796 42.357101,124.076309 
z"/>
<path fill="#1A2B5A" opacity="1.000000" stroke="none" 
	d="
M64.276360,113.711929 
	C64.212219,113.271881 64.455124,113.182846 64.859543,113.486267 
	C64.931396,113.623138 64.493752,113.807373 64.276360,113.711929 
z"/>
<path fill="#1A2B5A" opacity="1.000000" stroke="none" 
	d="
M80.282570,113.714203 
	C80.214378,113.271622 80.458191,113.181007 80.868675,113.486374 
	C80.943169,113.623604 80.502403,113.807419 80.282570,113.714203 
z"/>
<path fill="#2C3D60" opacity="1.000000" stroke="none" 
	d="
M56.775581,118.302612 
	C56.962402,118.657959 56.822670,118.835793 56.406891,118.971024 
	C56.067360,118.633789 56.173420,118.366013 56.775581,118.302612 
z"/>
<path fill="#F2F7FC" opacity="1.000000" stroke="none" 
	d="
M69.924454,36.633335 
	C67.425964,40.183205 65.810165,39.576618 65.005890,35.369129 
	C66.616203,35.422222 68.232399,35.844448 69.924454,36.633335 
z"/>
<path fill="#F2F7FC" opacity="1.000000" stroke="none" 
	d="
M68.891541,46.464920 
	C65.304413,46.889309 61.607189,46.937412 57.454224,46.911591 
	C60.722332,43.381927 64.752609,44.746693 68.891541,46.464920 
z"/>
<path fill="#18406B" opacity="1.000000" stroke="none" 
	d="
M160.597748,90.004501 
	C160.983719,90.440575 160.986923,90.885315 160.577332,91.675003 
	C156.776154,92.680504 153.387772,93.341049 149.999390,94.001595 
	C148.356049,94.159492 146.711548,94.306412 145.069809,94.479424 
	C144.093521,94.582306 142.744827,95.202011 142.207352,94.776398 
	C137.957321,91.410828 132.880753,89.783867 128.110641,87.471115 
	C123.999420,85.477814 120.830887,82.109612 118.244904,78.047592 
	C116.961838,76.032173 113.568947,75.470970 111.462433,73.826683 
	C110.217926,72.855255 109.621933,71.053001 109.145531,69.101196 
	C111.045769,66.001427 114.593933,63.374329 108.779968,61.256699 
	C107.975090,60.963535 108.079399,57.352364 108.291580,55.332790 
	C108.482437,53.516087 109.399933,51.775719 110.447105,50.000740 
	C113.598396,49.999668 116.299500,49.999531 119.000610,49.999390 
	C117.290413,53.747231 114.186676,57.356739 118.492424,61.510517 
	C119.102203,62.098774 118.433266,63.977570 118.414963,65.259880 
	C118.386169,67.277733 118.407310,69.296303 118.407310,71.552917 
	C125.639008,69.166428 126.163071,69.501656 127.003860,76.319817 
	C127.691162,81.893204 131.321365,84.653709 137.089508,83.944359 
	C139.376495,83.663109 141.726166,83.551559 143.919724,82.919785 
	C148.828491,81.505959 151.464325,83.951729 153.146896,88.029709 
	C154.713455,91.826515 157.506500,90.623375 160.597748,90.004501 
z"/>
<path fill="#213D6E" opacity="1.000000" stroke="none" 
	d="
M119.297455,49.976364 
	C116.299500,49.999531 113.598396,49.999668 109.978836,50.000530 
	C107.077591,50.000633 105.090561,50.083641 103.112831,49.983292 
	C97.753410,49.711361 92.397942,49.361603 87.040901,49.042706 
	C98.048111,49.023052 109.055321,49.003395 120.531181,48.989147 
	C120.531319,49.314148 120.062805,49.633743 119.297455,49.976364 
z"/>
<path fill="#19446D" opacity="1.000000" stroke="none" 
	d="
M66.015564,71.112732 
	C68.052460,71.040062 70.089355,70.967400 72.989349,70.942383 
	C75.903374,70.922989 77.954300,70.855949 80.005219,70.788902 
	C81.741966,70.852013 83.478706,70.915131 85.819351,71.312637 
	C86.630676,71.899178 86.858177,72.138603 87.031761,72.412231 
	C87.076469,72.482697 86.959190,72.769524 86.903442,72.773430 
	C85.609657,72.864136 84.314468,72.981277 83.018791,72.990921 
	C76.313759,73.040825 73.620110,77.556541 77.198357,83.205849 
	C79.391335,86.668106 81.915382,89.797699 87.013252,89.099098 
	C90.640335,88.602051 94.684822,89.920670 96.816925,85.426842 
	C97.016541,85.006126 98.345200,85.121094 99.149643,84.987343 
	C99.229576,89.021751 99.309502,93.056168 98.813324,97.543777 
	C88.714714,98.571182 80.294708,94.701439 71.824486,91.227417 
	C70.591347,90.721649 69.498589,88.841652 69.148041,87.401131 
	C67.879166,82.186890 63.635635,77.483719 66.212296,71.557861 
	C66.256126,71.457062 66.085899,71.263176 66.015564,71.112732 
M69.483627,72.578827 
	C69.483627,72.578827 69.425591,72.478119 69.483627,72.578827 
z"/>
<path fill="#163B66" opacity="1.000000" stroke="none" 
	d="
M65.602661,71.027374 
	C66.085899,71.263176 66.256126,71.457062 66.212296,71.557861 
	C63.635635,77.483719 67.879166,82.186890 69.148041,87.401131 
	C69.498589,88.841652 70.591347,90.721649 71.824486,91.227417 
	C80.294708,94.701439 88.714714,98.571182 98.690979,97.993454 
	C99.227829,98.437477 99.310921,98.885010 98.902252,99.697739 
	C94.408279,102.674263 90.338623,105.106781 85.240974,103.987320 
	C81.392555,103.142174 77.290741,102.797256 73.797653,101.167023 
	C70.123169,99.452141 64.435165,96.676239 64.227074,94.005531 
	C63.764782,88.072449 58.710918,85.200127 57.592262,80.172607 
	C57.060749,77.783844 56.533375,75.394157 56.004128,73.004890 
	C57.612305,72.612572 59.220478,72.220245 60.912628,71.470322 
	C62.394329,71.055824 63.792046,70.998917 65.602661,71.027374 
z"/>
<path fill="#163561" opacity="1.000000" stroke="none" 
	d="
M55.684494,73.165298 
	C56.533375,75.394157 57.060749,77.783844 57.592262,80.172607 
	C58.710918,85.200127 63.764782,88.072449 64.227074,94.005531 
	C64.435165,96.676239 70.123169,99.452141 73.797653,101.167023 
	C77.290741,102.797256 81.392555,103.142174 85.240974,103.987320 
	C90.338623,105.106781 94.408279,102.674263 98.790619,100.024689 
	C99.273285,104.783066 97.190063,108.397842 92.905701,111.054832 
	C91.366356,111.082909 90.141174,111.048477 88.244217,110.746834 
	C84.048492,109.652420 80.524551,108.825218 77.000610,107.998016 
	C76.333389,107.085022 75.583626,105.330467 75.011459,105.386597 
	C67.659386,106.107735 65.790863,97.184265 59.102798,96.392990 
	C57.904156,96.251175 57.195255,92.046806 56.243248,89.725166 
	C54.877449,86.394402 53.348091,83.121605 52.165333,79.727608 
	C51.104881,76.684570 52.910027,74.770485 55.684494,73.165298 
z"/>
<path fill="#184C75" opacity="1.000000" stroke="none" 
	d="
M99.202568,84.682037 
	C98.345200,85.121094 97.016541,85.006126 96.816925,85.426842 
	C94.684822,89.920670 90.640335,88.602051 87.013252,89.099098 
	C81.915382,89.797699 79.391335,86.668106 77.198357,83.205849 
	C73.620110,77.556541 76.313759,73.040825 83.018791,72.990921 
	C84.314468,72.981277 85.609657,72.864136 86.903442,72.773430 
	C86.959190,72.769524 87.076469,72.482697 87.031761,72.412231 
	C86.858177,72.138603 86.630676,71.899178 86.241676,71.418106 
	C87.139046,71.407181 88.217979,71.625191 89.640457,71.856689 
	C91.542633,72.882637 93.101250,73.895081 94.234833,75.368942 
	C92.816689,75.886703 91.812531,76.065025 90.832550,75.976334 
	C88.007744,75.720695 85.923561,76.966820 86.251091,79.716255 
	C86.434273,81.254005 88.392036,83.539749 89.819191,83.762154 
	C92.462135,84.174019 95.302589,83.318489 98.060783,82.990814 
	C98.459015,83.452789 98.857254,83.914764 99.202568,84.682037 
z"/>
<path fill="#18436C" opacity="1.000000" stroke="none" 
	d="
M126.991714,109.990120 
	C126.662567,112.058830 126.333427,114.127533 126.002296,116.594612 
	C119.998596,118.936569 114.839081,115.935875 109.599022,113.964951 
	C106.463783,112.785713 103.629715,110.871208 99.967834,112.950417 
	C100.032509,112.071999 100.390236,111.307495 101.293419,110.217407 
	C102.384422,108.501205 102.929962,107.110596 103.475510,105.719986 
	C103.475510,105.719986 103.521652,105.625870 103.850143,105.627548 
	C104.769119,105.402939 105.359612,105.176659 106.307121,104.933365 
	C107.612877,104.748947 109.323021,104.273308 109.398369,104.459450 
	C111.042587,108.521210 115.324959,107.494881 118.243622,108.887352 
	C120.761833,110.088776 124.046112,109.684517 126.991714,109.990120 
z"/>
<path fill="#1E537E" opacity="1.000000" stroke="none" 
	d="
M98.097748,82.592743 
	C95.302589,83.318489 92.462135,84.174019 89.819191,83.762154 
	C88.392036,83.539749 86.434273,81.254005 86.251091,79.716255 
	C85.923561,76.966820 88.007744,75.720695 90.832550,75.976334 
	C91.812531,76.065025 92.816689,75.886703 94.306793,75.724243 
	C95.914085,77.810310 97.024399,80.002495 98.097748,82.592743 
z"/>
<path fill="#2F546C" opacity="1.000000" stroke="none" 
	d="
M105.950104,104.950378 
	C105.359612,105.176659 104.769119,105.402939 103.865204,105.577339 
	C103.777794,101.892418 103.940765,98.253838 104.259850,94.628983 
	C104.393570,93.109993 104.858215,91.620140 105.581772,90.489624 
	C106.001183,91.568283 106.011230,92.274361 106.007500,93.442764 
	C105.979179,97.586853 105.964645,101.268608 105.950104,104.950378 
z"/>
<path fill="#2A5066" opacity="1.000000" stroke="none" 
	d="
M106.021278,92.980423 
	C106.011230,92.274361 106.001183,91.568283 105.996880,90.509140 
	C112.373917,90.005211 118.862518,89.175591 124.605011,93.675728 
	C123.731918,94.001175 122.739922,94.001587 121.129379,93.728119 
	C117.341568,92.640434 114.172325,91.826622 110.751633,91.010712 
	C110.332596,91.012375 110.165009,91.016129 109.701797,91.037369 
	C108.932755,91.362122 108.459335,91.669403 107.732483,92.088150 
	C106.993134,92.459885 106.507202,92.720154 106.021278,92.980423 
z"/>
<path fill="#2F546C" opacity="1.000000" stroke="none" 
	d="
M103.276283,105.951813 
	C102.929962,107.110596 102.384422,108.501205 101.483070,109.956429 
	C101.777199,108.741913 102.427132,107.462784 103.276283,105.951813 
z"/>
<path fill="#163965" opacity="1.000000" stroke="none" 
	d="
M86.659073,49.031403 
	C92.397942,49.361603 97.753410,49.711361 103.112831,49.983292 
	C105.090561,50.083641 107.077591,50.000633 109.528656,50.001465 
	C109.399933,51.775719 108.482437,53.516087 108.291580,55.332790 
	C108.079399,57.352364 107.975090,60.963535 108.779968,61.256699 
	C114.593933,63.374329 111.045769,66.001427 109.277924,68.789322 
	C107.404610,69.260452 105.816681,69.659546 104.213531,69.734909 
	C102.988846,69.792473 100.882774,69.795067 100.644005,69.214943 
	C98.461487,63.912136 93.709900,65.686432 89.099045,65.000839 
	C87.886322,65.001877 87.440819,65.003029 86.995308,65.004181 
	C86.995308,65.004181 86.997681,65.004730 86.995529,64.562340 
	C86.622475,61.227867 86.383034,58.310715 85.837814,55.451874 
	C85.423782,53.280922 84.620651,51.184177 83.990646,49.054417 
	C84.752846,49.042976 85.515045,49.031536 86.659073,49.031403 
z"/>
<path fill="#143C67" opacity="1.000000" stroke="none" 
	d="
M150.000061,94.388123 
	C153.387772,93.341049 156.776154,92.680504 160.574371,92.008514 
	C160.989670,94.368477 160.995132,96.739891 161.001831,99.555496 
	C157.938400,100.004631 154.873749,100.009560 151.401123,99.998848 
	C150.662354,98.247025 150.331543,96.510841 150.000061,94.388123 
z"/>
<path fill="#223962" opacity="1.000000" stroke="none" 
	d="
M86.993591,65.287849 
	C87.440819,65.003029 87.886322,65.001877 88.665817,65.001251 
	C88.999870,65.410492 88.999931,65.819191 88.999939,66.533974 
	C88.536583,66.874207 88.073288,66.908363 87.279305,66.823364 
	C86.963036,66.326645 86.977455,65.949081 86.993591,65.287849 
z"/>
<path fill="#16224D" opacity="1.000000" stroke="none" 
	d="
M89.029327,127.544846 
	C82.909615,127.965393 76.768654,128.152023 70.642044,127.934364 
	C66.207558,127.776810 62.744976,125.755684 60.354462,120.002235 
	C68.810089,120.002235 76.445374,120.002235 84.551834,120.011536 
	C85.468155,120.964607 85.854477,121.942101 86.371841,122.844467 
	C87.207268,124.301582 88.128960,125.709244 89.029327,127.544846 
z"/>
<path fill="#0F3664" opacity="1.000000" stroke="none" 
	d="
M103.951797,119.385223 
	C106.367981,123.245422 110.080315,123.616943 114.369492,122.823029 
	C115.125671,122.683060 116.104141,123.744026 116.989822,124.623497 
	C114.094803,125.331062 111.193710,125.901840 108.284195,125.948662 
	C102.929817,126.034828 102.412003,125.173080 103.951797,119.385223 
z"/>
<path fill="#172A5B" opacity="1.000000" stroke="none" 
	d="
M60.997349,49.056492 
	C65.062630,48.743340 69.127914,48.430187 73.608231,48.076195 
	C74.797913,48.356583 75.572571,48.677818 76.721626,49.378571 
	C79.361588,54.628502 80.675629,59.618359 79.007202,64.982605 
	C73.317795,64.990547 67.628395,64.998489 61.518547,64.623154 
	C64.964073,59.152882 61.692551,54.113235 60.997349,49.056492 
z"/>
<path fill="#223962" opacity="1.000000" stroke="none" 
	d="
M79.450294,64.990738 
	C80.675629,59.618359 79.361588,54.628502 77.057198,49.385101 
	C79.052025,49.016552 81.085686,49.020992 83.554993,49.039925 
	C84.620651,51.184177 85.423782,53.280922 85.837814,55.451874 
	C86.383034,58.310715 86.622475,61.227867 86.990646,64.566620 
	C84.623070,65.008476 82.258224,65.003670 79.450294,64.990738 
z"/>
<path fill="#184A74" opacity="1.000000" stroke="none" 
	d="
M106.007500,93.442757 
	C106.507202,92.720154 106.993134,92.459885 107.737617,92.499725 
	C107.996170,94.355560 107.996170,95.911293 107.996170,97.793915 
	C112.333267,96.613396 114.204384,97.639793 115.144585,101.496323 
	C116.082443,105.343216 118.986649,106.953850 123.001221,104.996109 
	C124.063057,104.994995 125.124901,104.993874 126.584206,104.985641 
	C126.987221,106.371185 126.992760,107.763840 126.995010,109.573311 
	C124.046112,109.684517 120.761833,110.088776 118.243622,108.887352 
	C115.324959,107.494881 111.042587,108.521210 109.398369,104.459450 
	C109.323021,104.273308 107.612877,104.748947 106.307121,104.933365 
	C105.964645,101.268608 105.979179,97.586853 106.007500,93.442757 
z"/>
<path fill="#17507A" opacity="1.000000" stroke="none" 
	d="
M122.993530,104.603500 
	C118.986649,106.953850 116.082443,105.343216 115.144585,101.496323 
	C114.204384,97.639793 112.333267,96.613396 107.996170,97.793915 
	C107.996170,95.911293 107.996170,94.355560 107.991043,92.388260 
	C108.459335,91.669403 108.932755,91.362122 109.794861,91.195618 
	C110.456718,91.228539 110.729897,91.120674 111.003075,91.012817 
	C114.172325,91.826622 117.341568,92.640434 120.757355,93.725098 
	C121.664536,97.400932 122.325188,100.805916 122.993530,104.603500 
z"/>
<path fill="#132C5C" opacity="1.000000" stroke="none" 
	d="
M76.575348,107.998642 
	C80.524551,108.825218 84.048492,109.652420 87.785187,110.741249 
	C87.997940,111.002876 87.517036,111.015938 86.843506,111.009155 
	C83.783401,111.328720 81.396828,111.655067 79.010254,111.981415 
	C77.939957,111.984154 76.869667,111.986885 75.124893,111.708977 
	C71.971031,111.607338 69.491661,111.786346 67.012283,111.965355 
	C66.254349,111.968025 65.496407,111.970695 64.121628,111.705360 
	C62.336914,111.290977 61.169037,111.144615 60.001163,110.998245 
	C59.462158,109.908264 59.197121,108.487877 58.342144,107.778954 
	C48.853878,99.911415 44.426609,89.160225 40.998650,77.405396 
	C40.997471,75.933044 40.998447,74.867012 40.998085,73.401245 
	C42.710663,72.998886 44.424587,72.996246 46.566467,72.995728 
	C46.664288,75.943680 46.313004,78.887405 46.020462,81.836952 
	C45.955898,82.487923 45.843025,83.366966 46.185658,83.790451 
	C51.116562,89.884987 53.426754,98.311852 61.984406,101.224403 
	C63.933907,101.887894 65.847008,103.332275 67.206375,104.909065 
	C69.687469,107.786972 72.703751,108.324837 76.575348,107.998642 
z"/>
<path fill="#1E2E57" opacity="1.000000" stroke="none" 
	d="
M59.789684,111.104111 
	C61.169037,111.144615 62.336914,111.290977 63.742741,111.696159 
	C62.601616,111.963631 61.222542,111.972282 59.430229,111.967392 
	C59.125168,111.646370 59.312237,111.398407 59.789684,111.104111 
z"/>
<path fill="#182354" opacity="1.000000" stroke="none" 
	d="
M54.528778,111.545433 
	C54.476994,111.575409 54.580559,111.515457 54.528778,111.545433 
z"/>
<path fill="#172355" opacity="1.000000" stroke="none" 
	d="
M60.562881,49.040276 
	C61.692551,54.113235 64.964073,59.152882 61.050850,64.617279 
	C55.982353,64.991508 50.961113,64.988342 45.473969,64.976074 
	C44.897518,62.786396 45.548542,60.649845 42.246243,59.578392 
	C40.337708,58.959156 39.082371,56.266842 41.784546,54.080795 
	C43.478355,52.710514 44.957878,51.075352 46.758770,49.304672 
	C51.365467,49.041561 55.746941,49.032810 60.562881,49.040276 
z"/>
<path fill="#CEDEE5" opacity="1.000000" stroke="none" 
	d="
M79.718468,70.556000 
	C77.954300,70.855949 75.903374,70.922989 73.423431,70.886597 
	C75.140175,70.629807 77.285950,70.476448 79.718468,70.556000 
z"/>
<path fill="#223962" opacity="1.000000" stroke="none" 
	d="
M65.386246,66.810074 
	C65.880898,66.556473 66.734344,66.413147 67.775818,66.483818 
	C67.224251,66.771996 66.484650,66.846169 65.386246,66.810074 
z"/>
<path fill="#1E2E57" opacity="1.000000" stroke="none" 
	d="
M67.454849,111.977333 
	C69.491661,111.786346 71.971031,111.607338 74.723579,111.701988 
	C72.630310,111.980202 70.263863,111.984756 67.454849,111.977333 
z"/>
<path fill="#1E2E57" opacity="1.000000" stroke="none" 
	d="
M79.438705,111.989029 
	C81.396828,111.655067 83.783401,111.328720 86.602966,111.008026 
	C84.646355,111.341339 82.256760,111.668991 79.438705,111.989029 
z"/>
<path fill="#163B66" opacity="1.000000" stroke="none" 
	d="
M69.454605,72.528473 
	C69.425591,72.478119 69.483627,72.578827 69.454605,72.528473 
z"/>
<path fill="#184A74" opacity="1.000000" stroke="none" 
	d="
M110.751633,91.010712 
	C110.729897,91.120674 110.456718,91.228539 110.090485,91.178146 
	C110.165009,91.016129 110.332596,91.012375 110.751633,91.010712 
z"/>
</svg>